<svg width="35" height="36" viewBox="0 0 35 36" fill="none" xmlns="http://www.w3.org/2000/svg">
<rect width="34.484" height="34.484" transform="translate(0.0996399 0.915894)" fill="#289EA1"/>
<g clip-path="url(#clip0_28_25)">
<path d="M10.3931 16.6141H12.6477V22.3759C11.7154 21.8128 10.94 21.0238 10.3931 20.0817V16.6141ZM30.3673 28.5202C30.4696 28.6238 30.5269 28.7635 30.5269 28.9091C30.5269 29.0547 30.4696 29.1945 30.3673 29.2981L28.4819 31.1836C28.3782 31.2858 28.2385 31.3432 28.0929 31.3432C27.9473 31.3432 27.8076 31.2858 27.704 31.1836L23.0365 26.5161L23.0288 26.5084C23.0068 26.4864 22.998 26.4589 22.9815 26.4358C20.9608 27.9107 18.5237 28.7053 16.022 28.7048C9.46903 28.7048 4.15656 23.3923 4.15656 16.8382C4.15656 10.2842 9.46903 4.97278 16.0231 4.97278C22.5772 4.97278 27.8885 10.2853 27.8885 16.8393C27.8885 19.4423 27.0403 21.842 25.6185 23.7977C25.646 23.8164 25.6757 23.8285 25.6998 23.8527L30.3673 28.5202ZM24.8428 16.8382C24.84 15.0977 24.3214 13.397 23.3527 11.951C22.3839 10.5049 21.0084 9.3784 19.3998 8.71363C17.7912 8.04886 16.0217 7.87566 14.3147 8.21592C12.6078 8.55617 11.0399 9.39462 9.80915 10.6254C8.5784 11.8561 7.73995 13.424 7.3997 15.1309C7.05944 16.8379 7.23263 18.6074 7.89741 20.216C8.56218 21.8246 9.68872 23.2002 11.1347 24.1689C12.5808 25.1377 14.2815 25.6562 16.022 25.659H16.0484C17.205 25.6573 18.35 25.4278 19.4179 24.9835C20.4858 24.5393 21.4558 23.8891 22.2724 23.07C23.0891 22.2509 23.7364 21.279 24.1774 20.2098C24.6184 19.1405 24.8445 17.9949 24.8428 16.8382ZM19.5029 22.31C20.4404 21.712 21.2115 20.8865 21.7443 19.9103V17.9721H19.5029V22.31ZM14.5585 23.3516C15.0448 23.4139 15.5327 23.4403 16.022 23.4308C16.4615 23.4579 16.901 23.4579 17.3405 23.4308V13.4244H14.5596L14.5585 23.3516Z" fill="white"/>
</g>
<defs>
<clipPath id="clip0_28_25">
<rect width="26.3701" height="26.3701" fill="white" transform="translate(4.15656 4.97278)"/>
</clipPath>
</defs>
</svg>
