<svg width="25" height="26" viewBox="0 0 25 26" fill="none" xmlns="http://www.w3.org/2000/svg">
<g clip-path="url(#clip0_66_354)">
<path d="M6.94444 21.7708C5.83333 21.7708 4.72222 20.7986 4.16667 20.3819C1.38889 18.4375 0.555556 17.7431 0 17.3264V23.1597C0 23.9266 0.621962 24.5486 1.38889 24.5486H12.5C13.2669 24.5486 13.8889 23.9266 13.8889 23.1597V17.3264C13.3333 17.7431 12.5 18.4375 9.72222 20.3819C9.16667 20.7986 8.05556 21.7708 6.94444 21.7708ZM12.5 13.4375H1.38889C0.621962 13.4375 0 14.0595 0 14.8264V15.5208C1.11111 16.3542 0.972222 16.3542 5 19.2708C5.41667 19.5486 6.25 20.3819 6.94444 20.3819C7.63889 20.3819 8.47222 19.5486 8.88889 19.4097C12.9167 16.4931 12.7778 16.4931 13.8889 15.6597V14.8264C13.8889 14.0595 13.2669 13.4375 12.5 13.4375ZM23.6111 9.27083H9.72222C8.95529 9.27083 8.33333 9.89279 8.33333 10.6597V12.0486H12.5C13.9414 12.0486 15.1298 13.1519 15.2652 14.5582L15.2778 14.5486V20.3819H23.6111C24.378 20.3819 25 19.76 25 18.9931V10.6597C25 9.89279 24.378 9.27083 23.6111 9.27083ZM22.2222 14.8264H19.4444V12.0486H22.2222V14.8264ZM6.94444 10.6597C6.94444 9.12803 8.19054 7.88194 9.72222 7.88194H19.4444V3.71527C19.4444 2.94835 18.8225 2.32639 18.0556 2.32639H4.16667C3.39974 2.32639 2.77778 2.94835 2.77778 3.71527V12.0486H6.94444V10.6597Z" fill="white"/>
</g>
<defs>
<clipPath id="clip0_66_354">
<rect width="25" height="25" fill="white" transform="translate(0 0.9375)"/>
</clipPath>
</defs>
</svg>
