<svg width="23" height="23" viewBox="0 0 23 23" fill="none" xmlns="http://www.w3.org/2000/svg">
<path d="M20.5244 0.432861H3.33691C2.71531 0.432861 2.11917 0.679791 1.67963 1.11933C1.24009 1.55887 0.993164 2.15501 0.993164 2.77661L0.993164 19.9641C0.993164 20.5857 1.24009 21.1819 1.67963 21.6214C2.11917 22.0609 2.71531 22.3079 3.33691 22.3079H10.0386V14.8708H6.9624V11.3704H10.0386V8.70239C10.0386 5.66772 11.8452 3.99145 14.6123 3.99145C15.9375 3.99145 17.3232 4.22778 17.3232 4.22778V7.2063H15.7964C14.292 7.2063 13.8228 8.13989 13.8228 9.09741V11.3704H17.1812L16.644 14.8708H13.8228V22.3079H20.5244C21.146 22.3079 21.7422 22.0609 22.1817 21.6214C22.6212 21.1819 22.8682 20.5857 22.8682 19.9641V2.77661C22.8682 2.15501 22.6212 1.55887 22.1817 1.11933C21.7422 0.679791 21.146 0.432861 20.5244 0.432861Z" fill="#CECECE"/>
</svg>
