<svg width="63" height="63" viewBox="0 0 63 63" fill="none" xmlns="http://www.w3.org/2000/svg">
<g clip-path="url(#clip0_66_472)">
<path d="M58.625 19.875H4.375C2.23491 19.875 0.5 18.1401 0.5 16V8.25C0.5 6.10991 2.23491 4.375 4.375 4.375H58.625C60.7651 4.375 62.5 6.10991 62.5 8.25V16C62.5 18.1401 60.7651 19.875 58.625 19.875ZM52.8125 9.21875C51.2074 9.21875 49.9062 10.5199 49.9062 12.125C49.9062 13.7301 51.2074 15.0312 52.8125 15.0312C54.4176 15.0312 55.7188 13.7301 55.7188 12.125C55.7188 10.5199 54.4176 9.21875 52.8125 9.21875ZM45.0625 9.21875C43.4574 9.21875 42.1562 10.5199 42.1562 12.125C42.1562 13.7301 43.4574 15.0312 45.0625 15.0312C46.6676 15.0312 47.9688 13.7301 47.9688 12.125C47.9688 10.5199 46.6676 9.21875 45.0625 9.21875ZM58.625 39.25H4.375C2.23491 39.25 0.5 37.5151 0.5 35.375V27.625C0.5 25.4849 2.23491 23.75 4.375 23.75H58.625C60.7651 23.75 62.5 25.4849 62.5 27.625V35.375C62.5 37.5151 60.7651 39.25 58.625 39.25ZM52.8125 28.5938C51.2074 28.5938 49.9062 29.8949 49.9062 31.5C49.9062 33.1051 51.2074 34.4062 52.8125 34.4062C54.4176 34.4062 55.7188 33.1051 55.7188 31.5C55.7188 29.8949 54.4176 28.5938 52.8125 28.5938ZM45.0625 28.5938C43.4574 28.5938 42.1562 29.8949 42.1562 31.5C42.1562 33.1051 43.4574 34.4062 45.0625 34.4062C46.6676 34.4062 47.9688 33.1051 47.9688 31.5C47.9688 29.8949 46.6676 28.5938 45.0625 28.5938ZM58.625 58.625H4.375C2.23491 58.625 0.5 56.8901 0.5 54.75V47C0.5 44.8599 2.23491 43.125 4.375 43.125H58.625C60.7651 43.125 62.5 44.8599 62.5 47V54.75C62.5 56.8901 60.7651 58.625 58.625 58.625ZM52.8125 47.9688C51.2074 47.9688 49.9062 49.2699 49.9062 50.875C49.9062 52.4801 51.2074 53.7812 52.8125 53.7812C54.4176 53.7812 55.7188 52.4801 55.7188 50.875C55.7188 49.2699 54.4176 47.9688 52.8125 47.9688ZM45.0625 47.9688C43.4574 47.9688 42.1562 49.2699 42.1562 50.875C42.1562 52.4801 43.4574 53.7812 45.0625 53.7812C46.6676 53.7812 47.9688 52.4801 47.9688 50.875C47.9688 49.2699 46.6676 47.9688 45.0625 47.9688Z" fill="#FFF068"/>
</g>
<defs>
<clipPath id="clip0_66_472">
<rect width="62" height="62" fill="white" transform="translate(0.5 0.5)"/>
</clipPath>
</defs>
</svg>
