<svg width="23" height="22" viewBox="0 0 23 22" fill="none" xmlns="http://www.w3.org/2000/svg">
<path d="M11.2065 5.40967C8.10107 5.40967 5.59619 7.91455 5.59619 11.02C5.59619 14.1255 8.10107 16.6304 11.2065 16.6304C14.312 16.6304 16.8169 14.1255 16.8169 11.02C16.8169 7.91455 14.312 5.40967 11.2065 5.40967ZM11.2065 14.6675C9.19971 14.6675 7.55908 13.0317 7.55908 11.02C7.55908 9.0083 9.19482 7.37256 11.2065 7.37256C13.2183 7.37256 14.854 9.0083 14.854 11.02C14.854 13.0317 13.2134 14.6675 11.2065 14.6675ZM18.355 5.18018C18.355 5.90771 17.769 6.48877 17.0464 6.48877C16.3188 6.48877 15.7378 5.90283 15.7378 5.18018C15.7378 4.45752 16.3237 3.87158 17.0464 3.87158C17.769 3.87158 18.355 4.45752 18.355 5.18018ZM22.0708 6.5083C21.9878 4.75537 21.5874 3.20264 20.3032 1.92334C19.0239 0.644043 17.4712 0.243652 15.7183 0.155762C13.9116 0.0532227 8.49658 0.0532227 6.68994 0.155762C4.94189 0.23877 3.38916 0.63916 2.10498 1.91846C0.820801 3.19775 0.425293 4.75049 0.337402 6.50342C0.234863 8.31006 0.234863 13.7251 0.337402 15.5317C0.42041 17.2847 0.820801 18.8374 2.10498 20.1167C3.38916 21.396 4.93701 21.7964 6.68994 21.8843C8.49658 21.9868 13.9116 21.9868 15.7183 21.8843C17.4712 21.8013 19.0239 21.4009 20.3032 20.1167C21.5825 18.8374 21.9829 17.2847 22.0708 15.5317C22.1733 13.7251 22.1733 8.31494 22.0708 6.5083ZM19.7368 17.4702C19.356 18.4272 18.6187 19.1646 17.6567 19.5503C16.2163 20.1216 12.7983 19.9897 11.2065 19.9897C9.61475 19.9897 6.19189 20.1167 4.75635 19.5503C3.79932 19.1694 3.06201 18.4321 2.67627 17.4702C2.10498 16.0298 2.23682 12.6118 2.23682 11.02C2.23682 9.42822 2.10986 6.00537 2.67627 4.56982C3.05713 3.61279 3.79443 2.87549 4.75635 2.48975C6.19678 1.91846 9.61475 2.05029 11.2065 2.05029C12.7983 2.05029 16.2212 1.92334 17.6567 2.48975C18.6138 2.87061 19.3511 3.60791 19.7368 4.56982C20.3081 6.01025 20.1763 9.42822 20.1763 11.02C20.1763 12.6118 20.3081 16.0347 19.7368 17.4702Z" fill="#CECECE"/>
</svg>
