<svg width="25" height="26" viewBox="0 0 25 26" fill="none" xmlns="http://www.w3.org/2000/svg">
<path d="M12.5049 7.82227C9.39941 7.82227 6.89453 10.3271 6.89453 13.4326C6.89453 16.5381 9.39941 19.043 12.5049 19.043C15.6104 19.043 18.1152 16.5381 18.1152 13.4326C18.1152 10.3271 15.6104 7.82227 12.5049 7.82227ZM12.5049 17.0801C10.498 17.0801 8.85742 15.4443 8.85742 13.4326C8.85742 11.4209 10.4932 9.78516 12.5049 9.78516C14.5166 9.78516 16.1523 11.4209 16.1523 13.4326C16.1523 15.4443 14.5117 17.0801 12.5049 17.0801ZM19.6533 7.59277C19.6533 8.32031 19.0674 8.90137 18.3447 8.90137C17.6172 8.90137 17.0361 8.31543 17.0361 7.59277C17.0361 6.87012 17.6221 6.28418 18.3447 6.28418C19.0674 6.28418 19.6533 6.87012 19.6533 7.59277ZM23.3691 8.9209C23.2861 7.16797 22.8857 5.61523 21.6016 4.33594C20.3223 3.05664 18.7695 2.65625 17.0166 2.56836C15.21 2.46582 9.79492 2.46582 7.98828 2.56836C6.24023 2.65137 4.6875 3.05176 3.40332 4.33105C2.11914 5.61035 1.72363 7.16309 1.63574 8.91602C1.5332 10.7227 1.5332 16.1377 1.63574 17.9443C1.71875 19.6973 2.11914 21.25 3.40332 22.5293C4.6875 23.8086 6.23535 24.209 7.98828 24.2969C9.79492 24.3994 15.21 24.3994 17.0166 24.2969C18.7695 24.2139 20.3223 23.8135 21.6016 22.5293C22.8809 21.25 23.2812 19.6973 23.3691 17.9443C23.4717 16.1377 23.4717 10.7275 23.3691 8.9209ZM21.0352 19.8828C20.6543 20.8398 19.917 21.5771 18.9551 21.9629C17.5146 22.5342 14.0967 22.4023 12.5049 22.4023C10.9131 22.4023 7.49023 22.5293 6.05469 21.9629C5.09766 21.582 4.36035 20.8447 3.97461 19.8828C3.40332 18.4424 3.53516 15.0244 3.53516 13.4326C3.53516 11.8408 3.4082 8.41797 3.97461 6.98242C4.35547 6.02539 5.09277 5.28809 6.05469 4.90234C7.49512 4.33105 10.9131 4.46289 12.5049 4.46289C14.0967 4.46289 17.5195 4.33594 18.9551 4.90234C19.9121 5.2832 20.6494 6.02051 21.0352 6.98242C21.6064 8.42285 21.4746 11.8408 21.4746 13.4326C21.4746 15.0244 21.6064 18.4473 21.0352 19.8828Z" fill="white"/>
</svg>
