<svg width="25" height="26" viewBox="0 0 25 26" fill="none" xmlns="http://www.w3.org/2000/svg">
<path d="M21.875 2.5H3.12012C2.26074 2.5 1.5625 3.20801 1.5625 4.07715V22.7979C1.5625 23.667 2.26074 24.375 3.12012 24.375H21.875C22.7344 24.375 23.4375 23.667 23.4375 22.7979V4.07715C23.4375 3.20801 22.7344 2.5 21.875 2.5ZM8.17383 21.25H4.93164V10.8105H8.17871V21.25H8.17383ZM6.55273 9.38477C5.5127 9.38477 4.67285 8.54004 4.67285 7.50488C4.67285 6.46973 5.5127 5.625 6.55273 5.625C7.58789 5.625 8.43262 6.46973 8.43262 7.50488C8.43262 8.54492 7.59277 9.38477 6.55273 9.38477ZM20.3271 21.25H17.085V16.1719C17.085 14.9609 17.0605 13.4033 15.4004 13.4033C13.7109 13.4033 13.4521 14.7217 13.4521 16.084V21.25H10.21V10.8105H13.3203V12.2363H13.3643C13.7988 11.416 14.8584 10.5518 16.4355 10.5518C19.7168 10.5518 20.3271 12.7148 20.3271 15.5273V21.25Z" fill="white"/>
</svg>
