<svg width="62" height="63" viewBox="0 0 62 63" fill="none" xmlns="http://www.w3.org/2000/svg">
<g clip-path="url(#clip0_66_477)">
<path d="M27.0184 56.2516L21.109 54.5369C20.489 54.3625 20.1403 53.7134 20.3147 53.0934L33.5381 7.54282C33.7125 6.92282 34.3615 6.57407 34.9815 6.74845L40.8909 8.46314C41.5109 8.63751 41.8597 9.28657 41.6853 9.90657L28.4619 55.4572C28.2778 56.0772 27.6384 56.4356 27.0184 56.2516ZM15.9747 45.3822L20.1887 40.8872C20.6344 40.4125 20.6053 39.6569 20.1112 39.221L11.3344 31.5L20.1112 23.7791C20.6053 23.3431 20.644 22.5875 20.1887 22.1128L15.9747 17.6178C15.5387 17.1528 14.8025 17.1238 14.3278 17.5694L0.368105 30.6475C-0.125957 31.1028 -0.125957 31.8875 0.368105 32.3428L14.3278 45.4306C14.8025 45.8763 15.5387 45.8569 15.9747 45.3822ZM47.6722 45.4403L61.6319 32.3525C62.1259 31.8972 62.1259 31.1125 61.6319 30.6572L47.6722 17.5597C47.2072 17.1238 46.4709 17.1431 46.0253 17.6081L41.8112 22.1031C41.3656 22.5778 41.3947 23.3334 41.8887 23.7694L50.6656 31.5L41.8887 39.221C41.3947 39.6569 41.3559 40.4125 41.8112 40.8872L46.0253 45.3822C46.4612 45.8569 47.1975 45.8763 47.6722 45.4403Z" fill="#FFF068"/>
</g>
<defs>
<clipPath id="clip0_66_477">
<rect width="62" height="62" fill="white" transform="translate(0 0.5)"/>
</clipPath>
</defs>
</svg>
