<svg width="25" height="26" viewBox="0 0 25 26" fill="none" xmlns="http://www.w3.org/2000/svg">
<g clip-path="url(#clip0_66_356)">
<path d="M12.5 1.32812C5.81055 1.32812 0.390625 6.74805 0.390625 13.4375C0.390625 20.127 5.81055 25.5469 12.5 25.5469C19.1895 25.5469 24.6094 20.127 24.6094 13.4375C24.6094 6.74805 19.1895 1.32812 12.5 1.32812ZM18.4473 9.62402L16.46 18.9893C16.3135 19.6533 15.918 19.8145 15.3662 19.502L12.3389 17.2705L10.8789 18.6768C10.7178 18.8379 10.5811 18.9746 10.2686 18.9746L10.4834 15.8936L16.0938 10.8252C16.3379 10.6104 16.04 10.4883 15.7178 10.7031L8.78418 15.0684L5.7959 14.1357C5.14648 13.9307 5.13184 13.4863 5.93262 13.1738L17.6074 8.67187C18.1494 8.47656 18.623 8.80371 18.4473 9.62402Z" fill="white"/>
</g>
<defs>
<clipPath id="clip0_66_356">
<rect width="25" height="25" fill="white" transform="translate(0 0.9375)"/>
</clipPath>
</defs>
</svg>
