<svg width="25" height="26" viewBox="0 0 25 26" fill="none" xmlns="http://www.w3.org/2000/svg">
<g clip-path="url(#clip0_66_358)">
<path d="M24.2866 18.6035L18.8179 16.2598C18.5843 16.1602 18.3246 16.1392 18.078 16.2C17.8315 16.2607 17.6113 16.4 17.4507 16.5967L15.0288 19.5557C11.2279 17.7636 8.16904 14.7047 6.37695 10.9038L9.33594 8.48193C9.53305 8.32162 9.67256 8.10145 9.73335 7.85476C9.79414 7.60807 9.7729 7.34829 9.67285 7.11475L7.3291 1.646C7.21929 1.39424 7.02508 1.18869 6.77996 1.06479C6.53483 0.940894 6.25416 0.906409 5.98633 0.967285L0.908203 2.13916C0.649985 2.19879 0.419602 2.34418 0.254656 2.5516C0.0897096 2.75903 -5.94829e-05 3.01624 2.95713e-08 3.28125C2.95713e-08 15.8057 10.1514 25.9375 22.6562 25.9375C22.9213 25.9377 23.1787 25.8479 23.3862 25.683C23.5937 25.518 23.7392 25.2876 23.7988 25.0293L24.9707 19.9512C25.0312 19.682 24.996 19.4002 24.8711 19.1543C24.7463 18.9083 24.5396 18.7135 24.2866 18.6035Z" fill="white"/>
</g>
<defs>
<clipPath id="clip0_66_358">
<rect width="25" height="25" fill="white" transform="translate(0 0.9375)"/>
</clipPath>
</defs>
</svg>
