<svg width="23" height="23" viewBox="0 0 23 23" fill="none" xmlns="http://www.w3.org/2000/svg">
<path d="M11.5 4.99609C7.9502 4.99609 5.06445 7.88184 5.05957 11.4316C5.05957 12.6475 5.40137 13.834 6.0459 14.8545L6.19727 15.0986L5.54785 17.4717L7.98438 16.832L8.21875 16.9736C9.20508 17.5596 10.3379 17.8721 11.4951 17.8721H11.5C15.0449 17.8721 18.0088 14.9863 18.0088 11.4365C18.0088 9.71777 17.2666 8.10156 16.0508 6.88574C14.8301 5.66504 13.2188 4.99609 11.5 4.99609ZM15.2842 14.1953C15.123 14.6494 14.3516 15.0596 13.9805 15.1133C13.3652 15.2061 12.8867 15.1572 11.6611 14.6299C9.72266 13.79 8.45313 11.8369 8.35547 11.71C8.25781 11.583 7.56445 10.6602 7.56445 9.70801C7.56445 8.75586 8.0625 8.28711 8.24316 8.0918C8.41895 7.89648 8.62891 7.84766 8.76074 7.84766C8.8877 7.84766 9.01953 7.84766 9.13184 7.85254C9.24902 7.85742 9.41016 7.80859 9.56641 8.18457C9.72754 8.57031 10.1133 9.52246 10.1621 9.62012C10.2109 9.71777 10.2451 9.83008 10.1768 9.95703C9.80566 10.6992 9.41016 10.6699 9.61035 11.0117C10.3574 12.2959 11.1045 12.7402 12.2422 13.3115C12.4375 13.4092 12.5498 13.3945 12.6621 13.2627C12.7744 13.1357 13.1455 12.6963 13.2725 12.5059C13.3994 12.3105 13.5313 12.3447 13.707 12.4082C13.8828 12.4717 14.835 12.9404 15.0303 13.0381C15.2256 13.1357 15.3525 13.1846 15.4014 13.2627C15.4453 13.3555 15.4453 13.7461 15.2842 14.1953ZM20.0938 0.5625H2.90625C1.6123 0.5625 0.5625 1.6123 0.5625 2.90625V20.0938C0.5625 21.3877 1.6123 22.4375 2.90625 22.4375H20.0938C21.3877 22.4375 22.4375 21.3877 22.4375 20.0938V2.90625C22.4375 1.6123 21.3877 0.5625 20.0938 0.5625ZM11.4951 19.1758C10.1963 19.1758 8.92188 18.8486 7.79395 18.2334L3.6875 19.3125L4.78613 15.2988C4.10742 14.127 3.75098 12.7939 3.75098 11.4268C3.75586 7.15918 7.22754 3.6875 11.4951 3.6875C13.5654 3.6875 15.5088 4.49316 16.9736 5.95801C18.4336 7.42285 19.3125 9.36621 19.3125 11.4365C19.3125 15.7041 15.7627 19.1758 11.4951 19.1758Z" fill="#CECECE"/>
</svg>
