<svg width="23" height="22" viewBox="0 0 23 22" fill="none" xmlns="http://www.w3.org/2000/svg">
<path d="M11.5 4.49609C7.9502 4.49609 5.06445 7.38184 5.05957 10.9316C5.05957 12.1475 5.40137 13.334 6.0459 14.3545L6.19727 14.5986L5.54785 16.9717L7.98438 16.332L8.21875 16.4736C9.20508 17.0596 10.3379 17.3721 11.4951 17.3721H11.5C15.0449 17.3721 18.0088 14.4863 18.0088 10.9365C18.0088 9.21777 17.2666 7.60156 16.0508 6.38574C14.8301 5.16504 13.2188 4.49609 11.5 4.49609ZM15.2842 13.6953C15.123 14.1494 14.3516 14.5596 13.9805 14.6133C13.3652 14.7061 12.8867 14.6572 11.6611 14.1299C9.72266 13.29 8.45313 11.3369 8.35547 11.21C8.25781 11.083 7.56445 10.1602 7.56445 9.20801C7.56445 8.25586 8.0625 7.78711 8.24316 7.5918C8.41895 7.39648 8.62891 7.34766 8.76074 7.34766C8.8877 7.34766 9.01953 7.34766 9.13184 7.35254C9.24902 7.35742 9.41016 7.30859 9.56641 7.68457C9.72754 8.07031 10.1133 9.02246 10.1621 9.12012C10.2109 9.21777 10.2451 9.33008 10.1768 9.45703C9.80566 10.1992 9.41016 10.1699 9.61035 10.5117C10.3574 11.7959 11.1045 12.2402 12.2422 12.8115C12.4375 12.9092 12.5498 12.8945 12.6621 12.7627C12.7744 12.6357 13.1455 12.1963 13.2725 12.0059C13.3994 11.8105 13.5313 11.8447 13.707 11.9082C13.8828 11.9717 14.835 12.4404 15.0303 12.5381C15.2256 12.6357 15.3525 12.6846 15.4014 12.7627C15.4453 12.8555 15.4453 13.2461 15.2842 13.6953ZM20.0938 0.0625H2.90625C1.6123 0.0625 0.5625 1.1123 0.5625 2.40625V19.5938C0.5625 20.8877 1.6123 21.9375 2.90625 21.9375H20.0938C21.3877 21.9375 22.4375 20.8877 22.4375 19.5938V2.40625C22.4375 1.1123 21.3877 0.0625 20.0938 0.0625ZM11.4951 18.6758C10.1963 18.6758 8.92188 18.3486 7.79395 17.7334L3.6875 18.8125L4.78613 14.7988C4.10742 13.627 3.75098 12.2939 3.75098 10.9268C3.75586 6.65918 7.22754 3.1875 11.4951 3.1875C13.5654 3.1875 15.5088 3.99316 16.9736 5.45801C18.4336 6.92285 19.3125 8.86621 19.3125 10.9365C19.3125 15.2041 15.7627 18.6758 11.4951 18.6758Z" fill="white"/>
</svg>
