<svg width="63" height="63" viewBox="0 0 63 63" fill="none" xmlns="http://www.w3.org/2000/svg">
<g clip-path="url(#clip0_66_399)">
<path d="M12.9 40.8H3.6C1.88822 40.8 0.5 42.1882 0.5 43.9V53.1999C0.5 54.9117 1.88822 56.2999 3.6 56.2999H12.9C14.6118 56.2999 16 54.9117 16 53.1999V43.9C16 42.1882 14.6118 40.8 12.9 40.8ZM10.575 33.05H29.175V37.7H33.825V33.05H52.425V37.7H57.075V32.1209C57.075 30.0701 55.4058 28.4 53.354 28.4H33.825V22.2H37.7C39.4118 22.2 40.8 20.8117 40.8 19.1V9.79995C40.8 8.08817 39.4118 6.69995 37.7 6.69995H25.3C23.5882 6.69995 22.2 8.08817 22.2 9.79995V19.1C22.2 20.8117 23.5882 22.2 25.3 22.2H29.175V28.4H9.64597C7.59416 28.4 5.925 30.0691 5.925 32.1209V37.7H10.575V33.05ZM36.15 40.8H26.85C25.1382 40.8 23.75 42.1882 23.75 43.9V53.1999C23.75 54.9117 25.1382 56.2999 26.85 56.2999H36.15C37.8618 56.2999 39.25 54.9117 39.25 53.1999V43.9C39.25 42.1882 37.8618 40.8 36.15 40.8ZM59.4 40.8H50.1C48.3882 40.8 47 42.1882 47 43.9V53.1999C47 54.9117 48.3882 56.2999 50.1 56.2999H59.4C61.1118 56.2999 62.5 54.9117 62.5 53.1999V43.9C62.5 42.1882 61.1118 40.8 59.4 40.8Z" fill="#AE4DFB"/>
</g>
<defs>
<clipPath id="clip0_66_399">
<rect width="62" height="62" fill="white" transform="translate(0.5 0.5)"/>
</clipPath>
</defs>
</svg>
