<svg width="90" height="90" viewBox="0 0 90 90" fill="none" xmlns="http://www.w3.org/2000/svg">
<rect x="0.5" y="0.74585" width="88.7542" height="88.7542" rx="44.3771" fill="#C4C4C4" stroke="#00687D"/>
<path d="M50.4867 30.0056H56.4766L53.4816 33.9989L50.4867 30.0056ZM30.5202 24.0156H58.4732C59.5323 24.0156 60.548 24.4363 61.2969 25.1852C62.0458 25.9341 62.4665 26.9498 62.4665 28.0089V59.9553C62.4665 62.1716 60.6895 63.9486 58.4732 63.9486H30.5202C29.4611 63.9486 28.4454 63.5279 27.6965 62.779C26.9476 62.0301 26.5269 61.0144 26.5269 59.9553V28.0089C26.5269 25.8126 28.3238 24.0156 30.5202 24.0156ZM30.5202 28.0089V35.9955H58.4732V28.0089H30.5202ZM30.5202 59.9553H58.4732V39.9888H30.5202V59.9553ZM34.5135 43.9821H54.4799V47.9754H34.5135V43.9821ZM34.5135 51.9687H54.4799V55.962H34.5135V51.9687Z" fill="#00687D"/>
</svg>
