<svg width="1024" height="973" viewBox="0 0 1024 973" fill="none" xmlns="http://www.w3.org/2000/svg">
<path d="M452 192C650.4 209.6 938.667 184.667 1058 170L1086 860C982 815.333 772 635.405 516 610C222 580.824 118 826 -22 882L-54 74C32 106 253.6 174.4 452 192Z" fill="#CACACA"/>
<path d="M650.83 280.483C262.703 298.756 22.5573 101.108 -49 0V1004C-10.538 966.992 176.861 432.569 614 600.806C1090 784 1202 1056 1182 694L1171.95 600.806L1202 205.581C1180 222.934 1038.96 262.209 650.83 280.483Z" fill="#00687D"/>
</svg>
