<svg width="84" height="84" viewBox="0 0 84 84" fill="none" xmlns="http://www.w3.org/2000/svg">
<rect x="0.5" y="0.5" width="83" height="83" rx="41.5" fill="#C4C4C4" stroke="#00687D"/>
<g clip-path="url(#clip0_1069_380)">
<path d="M33.2167 49.3557C33.0803 49.1407 32.9993 48.8953 32.9809 48.6414C32.9624 48.3874 33.0071 48.1329 33.111 47.9004C33.2148 47.668 33.3746 47.4648 33.5761 47.3092C33.7775 47.1535 34.0144 47.0501 34.2655 47.0082L36.8444 46.5764C37.1379 46.5271 37.4394 46.5637 37.7125 46.682C37.9856 46.8002 38.2187 46.9949 38.3837 47.2427L39.414 48.7881C38.135 49.1655 36.8083 49.3567 35.4747 49.3557L33.2167 49.3557ZM49.3561 35.4744C49.3571 36.8079 49.1659 38.1346 48.7885 39.4136L47.2461 38.3833C46.9978 38.2187 46.8025 37.9858 46.6837 37.7127C46.5649 37.4395 46.5278 37.1378 46.5767 36.844L47.0086 34.2651C47.0505 34.014 47.1539 33.7771 47.3095 33.5757C47.4652 33.3742 47.6684 33.2144 47.9008 33.1106C48.1333 33.0067 48.3878 32.962 48.6417 32.9805C48.8957 32.9989 49.1411 33.0799 49.3561 33.2163L49.3561 35.4744Z" fill="#00687D"/>
<path fill-rule="evenodd" clip-rule="evenodd" d="M41.6443 64.7795C36.4738 64.7793 31.4524 63.047 27.3815 59.8592C23.3106 56.6714 20.4249 52.2118 19.1849 47.1921C17.9449 42.1725 18.4222 36.8822 20.5405 32.1655C22.6589 27.4488 26.2961 23.5776 30.8718 21.1699C35.4475 18.7621 40.6979 17.9565 45.785 18.8817C50.8721 19.8069 55.5027 22.4094 58.9376 26.2741C62.3726 30.1387 64.414 35.0426 64.7361 40.2031C65.0581 45.3635 63.6421 50.4832 60.7142 54.7448L64.6164 62.5493C64.7597 62.8385 64.8087 63.1653 64.7564 63.4838C64.7041 63.8023 64.5532 64.0964 64.325 64.3246C64.0968 64.5528 63.8027 64.7037 63.4842 64.756C63.1657 64.8083 62.8389 64.7593 62.5497 64.616L54.7453 60.7138C50.8923 63.3676 46.3228 64.7857 41.6443 64.7795ZM31.0945 51.731L30.6688 51.0956C30.2406 50.4528 29.9802 49.713 29.9112 48.9437C29.8422 48.1744 29.9669 47.4001 30.2739 46.6914C30.5809 45.9826 31.0604 45.362 31.6688 44.8861C32.2771 44.4102 32.9949 44.0941 33.7566 43.9667L36.3386 43.5349C37.2182 43.3883 38.1213 43.4989 38.9395 43.8536C39.7577 44.2082 40.4559 44.7917 40.9503 45.5338L42.3014 47.5636C44.5026 46.3224 46.3233 44.5038 47.5671 42.3041L45.5373 40.9468C44.7957 40.4527 44.2126 39.7549 43.858 38.9374C43.5034 38.1198 43.3924 37.2173 43.5384 36.3382L43.9702 33.7562C44.0976 32.9944 44.4137 32.2767 44.8896 31.6683C45.3655 31.06 45.9861 30.5805 46.6949 30.2735C47.4036 29.9665 48.1779 29.8418 48.9472 29.9108C49.7165 29.9798 50.4563 30.2402 51.0991 30.6684L51.7376 31.0941C51.9543 31.2338 52.1324 31.4256 52.2558 31.6519C52.3792 31.8783 52.4439 32.1319 52.444 32.3897L52.444 35.4744C52.444 37.7027 52.0051 39.9092 51.1523 41.9678C50.2995 44.0264 49.0495 45.8969 47.4737 47.4724C45.8979 49.0479 44.0272 50.2975 41.9684 51.15C39.9097 52.0024 37.7031 52.4409 35.4749 52.4405L32.3901 52.4405C32.132 52.4401 31.8782 52.3749 31.6518 52.251C31.4255 52.127 31.2339 51.9483 31.0945 51.731Z" fill="#00687D"/>
</g>
<defs>
<clipPath id="clip0_1069_380">
<rect width="46.2712" height="46.2712" fill="white" transform="translate(18.5085 64.7795) rotate(-90)"/>
</clipPath>
</defs>
</svg>
