<svg width="1024" height="457" viewBox="0 0 1024 457" fill="none" xmlns="http://www.w3.org/2000/svg">
<rect y="-0.00012207" width="1024" height="457" fill="url(#paint0_linear_232_223)"/>
<rect x="28" y="349" width="51" height="51" fill="white" fill-opacity="0.04"/>
<rect x="63" y="337" width="29" height="29" fill="white" fill-opacity="0.04"/>
<rect x="48" y="53.9999" width="29" height="29" fill="white" fill-opacity="0.04"/>
<rect x="34.0001" y="72.9999" width="29" height="29" fill="white" fill-opacity="0.04"/>
<rect x="34.0001" y="109" width="29" height="29" fill="white" fill-opacity="0.04"/>
<rect x="14" y="121" width="40" height="40" fill="white" fill-opacity="0.04"/>
<rect x="917" y="312" width="51" height="51" fill="white" fill-opacity="0.06"/>
<rect x="951" y="340" width="34" height="34" fill="white" fill-opacity="0.06"/>
<rect x="917" y="272" width="29" height="29" fill="white" fill-opacity="0.06"/>
<rect x="917" y="229" width="29" height="29" fill="white" fill-opacity="0.06"/>
<rect x="937" y="207" width="29" height="29" fill="white" fill-opacity="0.06"/>
<rect x="970" y="207" width="29" height="29" fill="white" fill-opacity="0.06"/>
<rect x="323" y="198" width="29" height="29" fill="white" fill-opacity="0.06"/>
<rect x="34.0001" y="219" width="17" height="17" fill="white" fill-opacity="0.06"/>
<rect x="42.9999" y="229" width="17" height="17" fill="white" fill-opacity="0.06"/>
<rect x="34.0001" y="284" width="17" height="17" fill="white" fill-opacity="0.06"/>
<rect x="341" y="180" width="29" height="29" fill="white" fill-opacity="0.06"/>
<rect x="451" y="180" width="29" height="29" fill="white" fill-opacity="0.06"/>
<rect x="467" y="195" width="16" height="16" fill="white" fill-opacity="0.06"/>
<defs>
<linearGradient id="paint0_linear_232_223" x1="33" y1="-0.000122123" x2="32" y2="457" gradientUnits="userSpaceOnUse">
<stop stop-color="#68798F"/>
<stop offset="1" stop-color="#3E4856"/>
</linearGradient>
</defs>
</svg>
