<svg width="57" height="58" viewBox="0 0 57 58" fill="none" xmlns="http://www.w3.org/2000/svg">
<path d="M14.791 1.22589C16.3824 1.22589 22.7482 15.549 22.7482 17.1405C22.7482 20.3234 17.9739 23.5063 16.3824 26.6892C14.791 29.8721 17.9739 33.055 21.1568 36.2379C22.3981 37.4793 27.5226 42.6038 30.7055 41.0123C33.8884 39.4209 37.0714 34.6465 40.2543 34.6465C41.8457 34.6465 56.1688 41.0123 56.1688 42.6038C56.1688 48.9696 51.3945 53.744 46.6201 55.3354C41.8457 56.9269 38.6628 56.9269 32.297 55.3354C25.9312 53.744 21.1568 52.1525 13.1995 44.1952C5.24223 36.2379 3.65077 31.4636 2.05931 25.0977C0.467859 18.7319 0.467859 15.549 2.05931 10.7746C3.65077 6.00026 8.42514 1.22589 14.791 1.22589Z" fill="#68798F" stroke="#68798F" stroke-width="1.38258" stroke-linecap="round" stroke-linejoin="round"/>
</svg>
