<svg width="56" height="56" viewBox="0 0 56 56" fill="none" xmlns="http://www.w3.org/2000/svg">
<path d="M28.024 12.839C24.0361 12.843 20.2126 14.4283 17.3925 17.247C14.5723 20.0658 12.9858 23.8878 12.981 27.8745C12.9779 30.7131 13.7754 33.4793 15.2797 35.874L15.6362 36.4417L14.1167 41.989L19.8108 40.4973L20.3575 40.8234C22.6759 42.1952 25.3209 42.918 28.015 42.9161H28.018C32.0046 42.9105 35.8264 41.325 38.6456 38.5072C41.4649 35.6893 43.0516 31.869 43.058 27.8836C43.0643 25.9082 42.6788 23.9512 41.9239 22.1256C41.169 20.3001 40.0596 18.6422 38.6599 17.2479C37.2665 15.8468 35.6091 14.7357 33.7835 13.979C31.9579 13.2222 30.0003 12.8348 28.024 12.839ZM36.8686 34.3339C36.491 35.3908 34.6847 36.3511 33.8177 36.4809C32.8673 36.6452 31.8917 36.5842 30.9692 36.3028C30.0948 36.0293 29.2348 35.7118 28.3925 35.3515C23.8555 33.3947 20.8952 28.8318 20.6656 28.5268C20.4421 28.2248 18.823 26.0747 18.823 23.8522C18.823 21.6266 19.989 20.5334 20.4028 20.0805C20.5545 19.9085 20.7402 19.7699 20.9482 19.6732C21.1561 19.5765 21.3818 19.524 21.6111 19.5188C21.9132 19.5188 22.2122 19.5218 22.478 19.5339C22.7559 19.546 23.1275 19.4282 23.493 20.31C23.8706 21.2159 24.7768 23.4385 24.8885 23.665C25.0003 23.8914 25.0758 24.1542 24.9278 24.4561C24.7768 24.7611 24.7043 24.9453 24.4747 25.2111C24.2512 25.4768 24.0005 25.7999 23.7981 26.0053C23.5715 26.2288 23.3359 26.4734 23.5987 26.9263C23.8645 27.3763 24.7707 28.859 26.1119 30.0578C27.8398 31.5979 29.2988 32.072 29.7488 32.3015C30.2019 32.525 30.4647 32.4918 30.7306 32.1868C30.9934 31.8818 31.8603 30.8671 32.1624 30.4172C32.4644 29.9642 32.7635 30.0397 33.1803 30.1877C33.5942 30.3417 35.8174 31.4318 36.2675 31.6583C36.7146 31.8818 37.0196 31.9965 37.1344 32.1868C37.2432 32.374 37.2432 33.2769 36.8686 34.3339Z" fill="#68798F"/>
<path d="M52.5984 0.225899H3.44007C2.62522 0.225899 1.84375 0.549596 1.26756 1.12578C0.691373 1.70197 0.367676 2.48344 0.367676 3.29829V52.4566C0.367676 53.2715 0.691373 54.0529 1.26756 54.6291C1.84375 55.2053 2.62522 55.529 3.44007 55.529H52.5984C53.4132 55.529 54.1947 55.2053 54.7709 54.6291C55.3471 54.0529 55.6708 53.2715 55.6708 52.4566V3.29829C55.6708 2.48344 55.3471 1.70197 54.7709 1.12578C54.1947 0.549596 53.4132 0.225899 52.5984 0.225899ZM28.1421 45.9923H28.136C25.0641 45.99 22.0415 45.2201 19.3428 43.7525L9.58486 46.3118L12.1964 36.7751C10.5823 33.977 9.73321 30.8033 9.73432 27.5731C9.73544 24.3428 10.5868 21.1697 12.2028 18.3727C13.8187 15.5757 16.1425 13.2533 18.9404 11.639C21.7383 10.0246 24.9119 9.17506 28.1421 9.17579C30.5617 9.16909 32.9586 9.64281 35.1937 10.5695C37.4289 11.4961 39.4578 12.8573 41.1629 14.574C42.876 16.2803 44.2335 18.3094 45.1569 20.5439C46.0804 22.7784 46.5514 25.1739 46.5427 27.5917C46.5338 32.4691 44.5923 37.1442 41.1434 40.593C37.6946 44.0419 33.0195 45.9834 28.1421 45.9923Z" fill="#68798F"/>
</svg>
