<svg width="56" height="45" viewBox="0 0 56 45" fill="none" xmlns="http://www.w3.org/2000/svg">
<path d="M55.6671 10.531V36.7032C55.6672 38.8192 54.8588 40.8552 53.4072 42.3947C51.9556 43.9341 49.9706 44.8608 47.8583 44.9849L47.3717 44.9987H8.65948C6.54355 44.9988 4.50756 44.1904 2.96807 42.7388C1.42858 41.2872 0.501974 39.3022 0.37784 37.1899L0.364014 36.7032V10.531L26.4809 27.9432L26.8017 28.1257C27.1797 28.3104 27.5948 28.4064 28.0156 28.4064C28.4363 28.4064 28.8515 28.3104 29.2295 28.1257L29.5502 27.9432L55.6671 10.531Z" fill="#68798F"/>
<path d="M47.3719 0.756199C50.3582 0.756199 52.9769 2.33234 54.4369 4.70208L28.0158 22.3161L1.59473 4.70208C2.28821 3.57617 3.2408 2.63236 4.37308 1.94933C5.50536 1.26631 6.78452 0.863866 8.1039 0.775555L8.6597 0.756199H47.3719Z" fill="#68798F"/>
</svg>
