<svg width="56" height="56" viewBox="0 0 56 56" fill="none" xmlns="http://www.w3.org/2000/svg">
<path d="M27.8717 13.0362C23.9057 13.0402 20.1032 14.6168 17.2985 17.4201C14.4937 20.2234 12.9159 24.0245 12.9111 27.9893C12.9081 30.8124 13.7012 33.5633 15.1973 35.9449L15.5518 36.5095L14.0407 42.0265L19.7035 40.5429L20.2472 40.8672C22.553 42.2315 25.1834 42.9504 27.8627 42.9485H27.8657C31.8305 42.9429 35.6314 41.3661 38.4352 38.5637C41.239 35.7613 42.817 31.9619 42.8233 27.9983C42.8295 26.0338 42.4462 24.0875 41.6954 22.2719C40.9446 20.4564 39.8413 18.8076 38.4493 17.4209C37.0636 16.0275 35.4152 14.9225 33.5996 14.1699C31.784 13.4173 29.8372 13.032 27.8717 13.0362ZM36.6679 34.4133C36.2923 35.4644 34.4959 36.4194 33.6337 36.5486C32.6885 36.7119 31.7182 36.6512 30.8008 36.3714C29.9312 36.0994 29.0759 35.7837 28.2383 35.4253C23.726 33.4793 20.782 28.9414 20.5537 28.638C20.3314 28.3377 18.7211 26.1994 18.7211 23.989C18.7211 21.7756 19.8807 20.6885 20.2923 20.238C20.4432 20.067 20.6279 19.9291 20.8347 19.833C21.0415 19.7368 21.2659 19.6845 21.494 19.6794C21.7944 19.6794 22.0918 19.6824 22.3561 19.6944C22.6325 19.7064 23.002 19.5893 23.3655 20.4662C23.7411 21.3672 24.6423 23.5776 24.7535 23.8028C24.8646 24.0281 24.9397 24.2893 24.7925 24.5897C24.6423 24.893 24.5702 25.0762 24.3419 25.3405C24.1196 25.6048 23.8702 25.9261 23.669 26.1303C23.4436 26.3526 23.2093 26.5958 23.4707 27.0463C23.735 27.4938 24.6363 28.9684 25.9701 30.1607C27.6885 31.6923 29.1395 32.1638 29.5871 32.3921C30.0377 32.6143 30.2991 32.5813 30.5635 32.278C30.8248 31.9746 31.687 30.9655 31.9874 30.5181C32.2878 30.0676 32.5852 30.1427 32.9998 30.2898C33.4114 30.443 35.6224 31.5271 36.07 31.7524C36.5147 31.9746 36.8181 32.0888 36.9322 32.278C37.0404 32.4642 37.0404 33.3621 36.6679 34.4133Z" fill="white"/>
<path d="M52.3116 0.492249H3.42274C2.61236 0.492249 1.83517 0.814172 1.26214 1.3872C0.689111 1.96023 0.367188 2.73742 0.367188 3.5478V52.4367C0.367188 53.2471 0.689111 54.0243 1.26214 54.5973C1.83517 55.1703 2.61236 55.4922 3.42274 55.4922H52.3116C53.122 55.4922 53.8992 55.1703 54.4722 54.5973C55.0453 54.0243 55.3672 53.2471 55.3672 52.4367V3.5478C55.3672 2.73742 55.0453 1.96023 54.4722 1.3872C53.8992 0.814172 53.122 0.492249 52.3116 0.492249ZM27.9894 46.0078H27.9833C24.9282 46.0055 21.9222 45.2398 19.2383 43.7803L9.53385 46.3256L12.1311 36.8411C10.5259 34.0584 9.68139 30.9021 9.6825 27.6895C9.68361 24.477 10.5303 21.3213 12.1374 18.5396C13.7445 15.758 16.0555 13.4483 18.8381 11.8428C21.6207 10.2372 24.7768 9.39236 27.9894 9.39308C30.3958 9.38643 32.7795 9.85754 35.0024 10.7791C37.2253 11.7007 39.2431 13.0544 40.9389 14.7617C42.6425 16.4586 43.9926 18.4766 44.911 20.6989C45.8294 22.9212 46.2978 25.3035 46.2891 27.7081C46.2802 32.5587 44.3494 37.2082 40.9195 40.6381C37.4895 44.0681 32.8401 45.9989 27.9894 46.0078Z" fill="white"/>
</svg>
