<svg width="57" height="52" viewBox="0 0 57 52" fill="none" xmlns="http://www.w3.org/2000/svg">
<path d="M46.6364 52C43.7864 52 41.3466 50.9817 39.317 48.945C37.2875 46.9083 36.2727 44.46 36.2727 41.6V29.9C36.2727 28.08 36.8989 26.5417 38.1511 25.285C39.4034 24.0283 40.9364 23.4 42.75 23.4C44.5636 23.4 46.0966 24.0283 47.3489 25.285C48.6011 26.5417 49.2273 28.08 49.2273 29.9V41.6H44.0455V29.9C44.0455 29.5533 43.9159 29.25 43.6568 28.99C43.3977 28.73 43.0955 28.6 42.75 28.6C42.4045 28.6 42.1023 28.73 41.8432 28.99C41.5841 29.25 41.4545 29.5533 41.4545 29.9V41.6C41.4545 43.03 41.9624 44.2546 42.978 45.2738C43.9936 46.293 45.2131 46.8017 46.6364 46.8C48.0596 46.7983 49.28 46.2895 50.2973 45.2738C51.3147 44.2581 51.8216 43.0335 51.8182 41.6V31.2H57V41.6C57 44.46 55.9852 46.9083 53.9557 48.945C51.9261 50.9817 49.4864 52 46.6364 52ZM5.18182 41.6C3.75682 41.6 2.53736 41.0913 1.52345 40.0738C0.509546 39.0563 0.00172727 37.8317 0 36.4V5.2C0 3.77 0.507818 2.54627 1.52345 1.5288C2.53909 0.511333 3.75855 0.00173333 5.18182 0H46.6364C48.0614 0 49.2817 0.5096 50.2973 1.5288C51.313 2.548 51.8199 3.77173 51.8182 5.2V20.8H42.75C40.2455 20.8 38.108 21.6883 36.3375 23.465C34.567 25.2417 33.6818 27.3867 33.6818 29.9V41.6H5.18182ZM25.9091 23.4L46.6364 10.4V5.2L25.9091 18.2L5.18182 5.2V10.4L25.9091 23.4Z" fill="white"/>
</svg>
