<svg width="53" height="52" viewBox="0 0 53 52" fill="none" xmlns="http://www.w3.org/2000/svg">
<path d="M13.5 20.0909C12.8731 20.0909 12.2719 20.3399 11.8287 20.7832C11.3854 21.2265 11.1364 21.8277 11.1364 22.4545C11.1364 23.0814 11.3854 23.6826 11.8287 24.1259C12.2719 24.5692 12.8731 24.8182 13.5 24.8182C14.1269 24.8182 14.7281 24.5692 15.1713 24.1259C15.6146 23.6826 15.8636 23.0814 15.8636 22.4545C15.8636 21.8277 15.6146 21.2265 15.1713 20.7832C14.7281 20.3399 14.1269 20.0909 13.5 20.0909ZM11.1364 39C11.1364 38.3731 11.3854 37.7719 11.8287 37.3287C12.2719 36.8854 12.8731 36.6364 13.5 36.6364C14.1269 36.6364 14.7281 36.8854 15.1713 37.3287C15.6146 37.7719 15.8636 38.3731 15.8636 39C15.8636 39.6269 15.6146 40.2281 15.1713 40.6713C14.7281 41.1146 14.1269 41.3636 13.5 41.3636C12.8731 41.3636 12.2719 41.1146 11.8287 40.6713C11.3854 40.2281 11.1364 39.6269 11.1364 39ZM0.5 8.86364C0.5 6.51285 1.43384 4.25835 3.0961 2.5961C4.75835 0.933845 7.01285 0 9.36364 0H43.6364C45.9871 0 48.2416 0.933845 49.9039 2.5961C51.5662 4.25835 52.5 6.51285 52.5 8.86364V43.1364C52.5 45.4871 51.5662 47.7416 49.9039 49.4039C48.2416 51.0662 45.9871 52 43.6364 52H9.36364C7.01285 52 4.75835 51.0662 3.0961 49.4039C1.43384 47.7416 0.5 45.4871 0.5 43.1364V8.86364ZM7.59091 22.4545C7.59091 24.0217 8.21347 25.5247 9.32164 26.6329C10.4298 27.7411 11.9328 28.3636 13.5 28.3636C15.0672 28.3636 16.5702 27.7411 17.6784 26.6329C18.7865 25.5247 19.4091 24.0217 19.4091 22.4545C19.4091 20.8874 18.7865 19.3844 17.6784 18.2762C16.5702 17.168 15.0672 16.5455 13.5 16.5455C11.9328 16.5455 10.4298 17.168 9.32164 18.2762C8.21347 19.3844 7.59091 20.8874 7.59091 22.4545ZM13.5 33.0909C11.9328 33.0909 10.4298 33.7135 9.32164 34.8216C8.21347 35.9298 7.59091 37.4328 7.59091 39C7.59091 40.5672 8.21347 42.0702 9.32164 43.1784C10.4298 44.2865 11.9328 44.9091 13.5 44.9091C15.0672 44.9091 16.5702 44.2865 17.6784 43.1784C18.7865 42.0702 19.4091 40.5672 19.4091 39C19.4091 37.4328 18.7865 35.9298 17.6784 34.8216C16.5702 33.7135 15.0672 33.0909 13.5 33.0909ZM24.1364 21.8636C24.1364 22.8422 24.9305 23.6364 25.9091 23.6364H43.6364C44.1065 23.6364 44.5574 23.4496 44.8899 23.1171C45.2223 22.7847 45.4091 22.3338 45.4091 21.8636C45.4091 21.3935 45.2223 20.9426 44.8899 20.6101C44.5574 20.2777 44.1065 20.0909 43.6364 20.0909H25.9091C25.4389 20.0909 24.988 20.2777 24.6556 20.6101C24.3231 20.9426 24.1364 21.3935 24.1364 21.8636ZM25.9091 36.6364C25.4389 36.6364 24.988 36.8231 24.6556 37.1556C24.3231 37.488 24.1364 37.9389 24.1364 38.4091C24.1364 38.8792 24.3231 39.3301 24.6556 39.6626C24.988 39.995 25.4389 40.1818 25.9091 40.1818H43.6364C44.1065 40.1818 44.5574 39.995 44.8899 39.6626C45.2223 39.3301 45.4091 38.8792 45.4091 38.4091C45.4091 37.9389 45.2223 37.488 44.8899 37.1556C44.5574 36.8231 44.1065 36.6364 43.6364 36.6364H25.9091ZM7.59091 8.86364C7.59091 9.84218 8.38509 10.6364 9.36364 10.6364H43.6364C44.1065 10.6364 44.5574 10.4496 44.8899 10.1171C45.2223 9.78469 45.4091 9.33379 45.4091 8.86364C45.4091 8.39348 45.2223 7.94258 44.8899 7.61013C44.5574 7.27768 44.1065 7.09091 43.6364 7.09091H9.36364C8.89348 7.09091 8.44258 7.27768 8.11013 7.61013C7.77768 7.94258 7.59091 8.39348 7.59091 8.86364Z" fill="white"/>
</svg>
