<svg width="13" height="18" viewBox="0 0 13 18" fill="none" xmlns="http://www.w3.org/2000/svg">
<path d="M0.647461 2.77945C0.647461 2.22952 0.891638 1.70211 1.32628 1.31325C1.76092 0.924392 2.35041 0.705933 2.96509 0.705933L9.91796 0.705933C10.5326 0.705933 11.1221 0.924392 11.5568 1.31325C11.9914 1.70211 12.2356 2.22952 12.2356 2.77945V15.2205C12.2356 15.7705 11.9914 16.2979 11.5568 16.6867C11.1221 17.0756 10.5326 17.2941 9.91796 17.2941H2.96509C2.35041 17.2941 1.76092 17.0756 1.32628 16.6867C0.891638 16.2979 0.647461 15.7705 0.647461 15.2205V2.77945ZM7.60033 14.1838C7.60033 13.9088 7.47825 13.6451 7.26093 13.4507C7.04361 13.2563 6.74886 13.147 6.44152 13.147C6.13419 13.147 5.83944 13.2563 5.62212 13.4507C5.4048 13.6451 5.28271 13.9088 5.28271 14.1838C5.28271 14.4587 5.4048 14.7225 5.62212 14.9169C5.83944 15.1113 6.13419 15.2205 6.44152 15.2205C6.74886 15.2205 7.04361 15.1113 7.26093 14.9169C7.47825 14.7225 7.60033 14.4587 7.60033 14.1838Z" fill="white"/>
</svg>
