<svg width="16" height="16" viewBox="0 0 16 16" fill="none" xmlns="http://www.w3.org/2000/svg">
<path d="M13.9236 0.535339H2.31189C1.39954 0.535339 0.653076 1.28181 0.653076 2.19415V13.8058C0.653076 14.719 1.39954 15.4647 2.31189 15.4647H13.9236C14.8359 15.4647 15.5824 14.719 15.5824 13.8058V2.19415C15.5824 1.28181 14.8359 0.535339 13.9236 0.535339ZM8.10446 12.5808C9.32268 12.5804 10.4909 12.0962 11.3522 11.2347C12.2135 10.3732 12.6975 9.20494 12.6977 7.98673C12.6977 7.70639 12.662 7.436 12.6123 7.17059H13.9236V13.1556C13.9236 13.231 13.9087 13.3056 13.8798 13.3752C13.8509 13.4448 13.8085 13.508 13.7551 13.5611C13.7017 13.6143 13.6383 13.6564 13.5686 13.685C13.4988 13.7136 13.4242 13.7282 13.3488 13.7279H2.88667C2.8113 13.7282 2.73662 13.7136 2.6669 13.685C2.59718 13.6564 2.53379 13.6143 2.48039 13.5611C2.42698 13.508 2.3846 13.4448 2.35569 13.3752C2.32677 13.3056 2.31189 13.231 2.31189 13.1556V7.17059H3.59664C3.54604 7.436 3.51038 7.70639 3.51038 7.98673C3.5106 9.20509 3.99469 10.3735 4.8562 11.235C5.71771 12.0965 6.8861 12.5806 8.10446 12.5808ZM5.23389 7.98673C5.23389 7.60976 5.30814 7.23648 5.4524 6.88821C5.59666 6.53993 5.8081 6.22348 6.07466 5.95692C6.34122 5.69037 6.65767 5.47892 7.00594 5.33466C7.35421 5.1904 7.72749 5.11615 8.10446 5.11615C8.48143 5.11615 8.85471 5.1904 9.20298 5.33466C9.55126 5.47892 9.86771 5.69037 10.1343 5.95692C10.4008 6.22348 10.6123 6.53993 10.7565 6.88821C10.9008 7.23648 10.975 7.60976 10.975 7.98673C10.975 8.74805 10.6726 9.47819 10.1343 10.0165C9.59593 10.5549 8.86578 10.8573 8.10446 10.8573C7.34314 10.8573 6.613 10.5549 6.07466 10.0165C5.53632 9.47819 5.23389 8.74805 5.23389 7.98673ZM13.3488 4.68237H12.0093C11.8572 4.68193 11.7115 4.62132 11.6039 4.51378C11.4964 4.40624 11.4358 4.26051 11.4354 4.10842V2.76727C11.4354 2.45044 11.6925 2.19415 12.0085 2.19415H13.348C13.6665 2.19415 13.9236 2.45044 13.9236 2.76727V4.10759C13.9236 4.4236 13.6665 4.68237 13.3488 4.68237Z" fill="white"/>
</svg>
