<svg width="17" height="18" viewBox="0 0 17 18" fill="none" xmlns="http://www.w3.org/2000/svg">
<path d="M0.411865 1.89406C0.411865 1.23779 0.9572 0.705933 1.63006 0.705933H15.7818C16.4547 0.705933 17 1.23779 17 1.89406V16.1059C17 16.7622 16.4547 17.2941 15.7818 17.2941H1.63006C0.9572 17.2941 0.411865 16.7622 0.411865 16.1059V1.89406ZM5.53656 14.5923V7.10169H3.0473V14.5923H5.53656ZM4.29245 6.07841C5.16022 6.07841 5.70037 5.50405 5.70037 4.78454C5.68481 4.04948 5.16125 3.49066 4.30904 3.49066C3.45682 3.49066 2.90008 4.05051 2.90008 4.78454C2.90008 5.50405 3.44023 6.07841 4.27586 6.07841H4.29245ZM9.38086 14.5923V10.4089C9.38086 10.185 9.39744 9.96107 9.4638 9.80141C9.64316 9.35457 10.0527 8.89113 10.7411 8.89113C11.642 8.89113 12.0018 9.57747 12.0018 10.5852V14.5923H14.491V10.2959C14.491 7.99434 13.2635 6.92441 11.6254 6.92441C10.3046 6.92441 9.71262 7.65014 9.38086 8.16126V8.18718H9.36427L9.38086 8.16126V7.10169H6.89264C6.92374 7.80461 6.89264 14.5923 6.89264 14.5923H9.38086Z" fill="white"/>
</svg>
