<svg width="1024" height="1767" viewBox="0 0 1024 1767" fill="none" xmlns="http://www.w3.org/2000/svg">
<rect x="34.0001" y="1072" width="100" height="100" fill="#68798F" fill-opacity="0.24"/>
<rect x="46.9999" y="770" width="100" height="203" fill="#68798F" fill-opacity="0.24"/>
<rect x="20.0001" y="812" width="67" height="67" fill="#68798F" fill-opacity="0.24"/>
<rect x="827" y="1095" width="265" height="100" fill="#68798F" fill-opacity="0.24"/>
<rect x="879" y="1054" width="248" height="68" fill="#68798F" fill-opacity="0.24"/>
<rect x="463" y="1082" width="119" height="33" fill="#68798F" fill-opacity="0.24"/>
<rect x="544" y="1108" width="44" height="12" fill="#68798F" fill-opacity="0.24"/>
<rect x="559" y="669" width="131" height="128" fill="#68798F" fill-opacity="0.24"/>
<rect x="-146" y="206" width="332" height="384" fill="#68798F" fill-opacity="0.17"/>
<rect x="52" y="14" width="100" height="100" fill="#68798F" fill-opacity="0.24"/>
<rect x="97" y="61" width="79" height="79" fill="#68798F" fill-opacity="0.16"/>
<rect x="387" y="14" width="22" height="22" fill="#D9D9D9" fill-opacity="0.9"/>
<rect x="415" y="14" width="22" height="22" fill="#D9D9D9" fill-opacity="0.9"/>
<rect x="442" y="14" width="22" height="22" fill="#D9D9D9" fill-opacity="0.9"/>
<rect x="469" y="14" width="22" height="22" fill="#D9D9D9" fill-opacity="0.9"/>
<rect x="722" y="-127" width="332" height="384" fill="#68798F" fill-opacity="0.51"/>
<rect x="-94" y="1383" width="332" height="384" fill="#68798F" fill-opacity="0.31"/>
<rect x="206" y="1429" width="56" height="56" fill="#68798F" fill-opacity="0.31"/>
<rect x="28" y="1645" width="51" height="51" fill="white" fill-opacity="0.04"/>
<rect x="63" y="1633" width="29" height="29" fill="white" fill-opacity="0.04"/>
<rect x="48" y="1350" width="29" height="29" fill="white" fill-opacity="0.04"/>
<rect x="34.0001" y="1369" width="29" height="29" fill="white" fill-opacity="0.04"/>
<rect x="34.0001" y="1405" width="29" height="29" fill="white" fill-opacity="0.04"/>
<rect x="14" y="1417" width="40" height="40" fill="white" fill-opacity="0.04"/>
<rect x="917" y="1608" width="51" height="51" fill="white" fill-opacity="0.06"/>
<rect x="951" y="1636" width="34" height="34" fill="white" fill-opacity="0.06"/>
<rect x="917" y="1568" width="29" height="29" fill="white" fill-opacity="0.06"/>
<rect x="917" y="1525" width="29" height="29" fill="white" fill-opacity="0.06"/>
<rect x="937" y="1503" width="29" height="29" fill="white" fill-opacity="0.06"/>
<rect x="970" y="1503" width="29" height="29" fill="white" fill-opacity="0.06"/>
<rect x="323" y="1494" width="29" height="29" fill="white" fill-opacity="0.06"/>
<rect x="34.0001" y="1515" width="17" height="17" fill="white" fill-opacity="0.06"/>
<rect x="42.9999" y="1525" width="17" height="17" fill="white" fill-opacity="0.06"/>
<rect x="34.0001" y="1580" width="17" height="17" fill="white" fill-opacity="0.06"/>
<rect x="341" y="1476" width="29" height="29" fill="white" fill-opacity="0.06"/>
<rect x="451" y="1476" width="29" height="29" fill="white" fill-opacity="0.06"/>
<rect x="467" y="1491" width="16" height="16" fill="white" fill-opacity="0.06"/>
<rect y="291" width="88" height="44" fill="#D9D9D9"/>
<rect x="994" y="59" width="30" height="10" fill="#D9D9D9"/>
</svg>
